<svg xmlns="http://www.w3.org/2000/svg" width="240" height="240" viewBox="0 0 24 24" fill="none">
  <g transform="rotate(90, 12, 12)">
    <!-- Scroll body fill - complete outer boundary -->
    <path d="M4 3H17A2 2 0 0 1 19 5V17H21A1 1 0 0 1 22 18V19A2 2 0 0 1 20 21H6A2 2 0 0 1 4 19V8H3A1 1 0 0 1 2 7V5A2 2 0 0 1 4 3Z" fill="#e8c878"/>
    <!-- Darker shade on flap area -->
    <path d="M19 17H21A1 1 0 0 1 22 18V19A2 2 0 0 1 20 21H6A2 2 0 0 1 4 19V17Z" fill="#d4b060"/>
    <!-- Darker shade on roll area -->
    <path d="M4 3V8H3A1 1 0 0 1 2 7V5A2 2 0 0 1 4 3Z" fill="#d4b060"/>
    <!-- Scroll stroke detail (from lucide) -->
    <path d="M19 17V5a2 2 0 0 0-2-2H4" stroke="#b89840" stroke-width="1" stroke-linecap="round" stroke-linejoin="round"/>
    <path d="M8 21h12a2 2 0 0 0 2-2v-1a1 1 0 0 0-1-1H11a1 1 0 0 0-1 1v1a2 2 0 1 1-4 0V5a2 2 0 1 0-4 0v2a1 1 0 0 0 1 1h3" stroke="#b89840" stroke-width="1" stroke-linecap="round" stroke-linejoin="round"/>
  </g>
</svg>
